<svg xmlns="http://www.w3.org/2000/svg" fill="#FFd000" viewBox="-0.75 -0.75 16 16" stroke="#FFd000" aria-hidden="true" id="Star--Streamline-Heroicons-Outline.svg" height="16" width="16"><desc>Star Streamline Icon: https://streamlinehq.com</desc><path stroke-linecap="round" stroke-linejoin="round" d="M6.935833333333333 2.1139791666666667a0.3395416666666667 0.3395416666666667 0 0 1 0.6283333333333333 0l1.2838541666666665 3.087895833333333a0.34014583333333326 0.34014583333333326 0 0 0 0.2869791666666666 0.20843749999999997l3.3337916666666665 0.2670416666666667c0.30147916666666663 0.024166666666666666 0.4235208333333333 0.4005625 0.19393749999999998 0.5969166666666667l-2.539916666666666 2.1762083333333333a0.34014583333333326 0.34014583333333326 0 0 0 -0.10995833333333332 0.3365208333333333l0.7763541666666666 3.2534374999999995a0.3395416666666667 0.3395416666666667 0 0 1 -0.5075 0.36854166666666666l-2.8546875 -1.743020833333333a0.3395416666666667 0.3395416666666667 0 0 0 -0.35404166666666664 0L4.2182916666666666 12.409583333333332a0.3395416666666667 0.3395416666666667 0 0 1 -0.5075 -0.36854166666666666l0.7763541666666666 -3.2540416666666667a0.3395416666666667 0.3395416666666667 0 0 0 -0.10995833333333332 -0.3365208333333333l-2.539916666666666 -2.1762083333333333a0.3395416666666667 0.3395416666666667 0 0 1 0.19393749999999998 -0.5969166666666667l3.3337916666666665 -0.2670416666666667a0.34014583333333326 0.34014583333333326 0 0 0 0.2869791666666666 -0.20843749999999997L6.935833333333333 2.114583333333333Z" stroke-width="0.75"></path></svg>